<svg xmlns="http://www.w3.org/2000/svg" viewBox="0 0 1200 700" preserveAspectRatio="none">
  <defs>
    <radialGradient id="r" cx="68%" cy="40%" r="70%">
      <stop offset="0" stop-color="#D9ECFF"/>
      <stop offset="1" stop-color="#FFFFFF"/>
    </radialGradient>
    <linearGradient id="l" x1="0" y1="0" x2="1" y2="1">
      <stop offset="0" stop-color="#EAF4FF"/>
      <stop offset="1" stop-color="#FFFFFF"/>
    </linearGradient>
  </defs>

  <rect width="1200" height="700" fill="url(#r)"/>
  <g opacity="0.28">
    <path d="M0 480 C 220 420, 420 560, 620 500 C 820 440, 980 520, 1200 470" fill="none" stroke="#1D7DF2" stroke-width="3"/>
    <path d="M0 520 C 240 480, 430 600, 640 540 C 850 480, 980 560, 1200 520" fill="none" stroke="#0D63CC" stroke-width="2"/>
  </g>

  <g opacity="0.18" stroke="#0B4EA2">
    <path d="M120 120 L520 60 L900 140 L1060 360 L820 600 L420 620 L120 480 Z" fill="none" stroke-width="2"/>
    <circle cx="520" cy="60" r="6" fill="#0D63CC"/>
    <circle cx="900" cy="140" r="6" fill="#1D7DF2"/>
    <circle cx="1060" cy="360" r="6" fill="#0B4EA2"/>
    <circle cx="820" cy="600" r="6" fill="#0D63CC"/>
    <circle cx="420" cy="620" r="6" fill="#1D7DF2"/>
    <circle cx="120" cy="480" r="6" fill="#0B4EA2"/>
  </g>

  <rect width="1200" height="700" fill="url(#l)" opacity="0.25"/>
</svg>
